<svg width="256" height="256" viewBox="0 0 20 20" xmlns="http://www.w3.org/2000/svg"><rect x="0" y="0" width="20" height="20" rx="8" fill="none"/><svg xmlns="http://www.w3.org/2000/svg" viewBox="0 0 20 20" fill="#000000" x="0" y="0" width="20" height="20"><g fill="#000000"><path d="M17.414 2.586a2 2 0 0 0-2.828 0L7 10.172V13h2.828l7.586-7.586a2 2 0 0 0 0-2.828Z"/><path fill-rule="evenodd" d="M2 6a2 2 0 0 1 2-2h4a1 1 0 0 1 0 2H4v10h10v-4a1 1 0 1 1 2 0v4a2 2 0 0 1-2 2H4a2 2 0 0 1-2-2V6Z" clip-rule="evenodd"/></g></svg></svg>